<svg xmlns="http://www.w3.org/2000/svg" viewBox="0 0 64 64"><path fill="currentColor" d="M15.56 26.01A17.5 17.5 0 0 1 47.86 24.6L50.13 23.55L47.31 34.42L41.97 27.35L44.24 26.29A13.5 13.5 0 0 0 19.31 27.38Z"/><path fill="var(--nr-icon-accent, #2F99A4)" d="M48.44 37.99A17.5 17.5 0 0 1 16.14 39.4L13.87 40.45L16.69 29.58L22.03 36.65L19.76 37.71A13.5 13.5 0 0 0 44.69 36.62Z"/><g opacity=".4"><path fill="currentColor" d="M28 26h8c1.1 0 2 .9 2 2v8c0 1.1-.9 2-2 2h-8c-1.1 0-2-.9-2-2v-8c0-1.1.9-2 2-2Z"/></g></svg>
